<?xml version="1.0" standalone="no"?>
<!DOCTYPE svg PUBLIC "-//W3C//DTD SVG 20010904//EN"
 "http://www.w3.org/TR/2001/REC-SVG-20010904/DTD/svg10.dtd">
<svg version="1.0" xmlns="http://www.w3.org/2000/svg"
 width="150.000000pt" height="150.000000pt" viewBox="0 0 150.000000 150.000000"
 preserveAspectRatio="xMidYMid meet">
<metadata>
Created by potrace 1.15, written by Peter Selinger 2001-2017
</metadata>
<g transform="translate(0.000000,150.000000) scale(0.100000,-0.100000)"
fill="#000000" stroke="none">
<path d="M625 1396 c-149 -35 -254 -94 -354 -202 -74 -79 -113 -144 -148 -249
-37 -112 -39 -275 -5 -385 54 -174 178 -323 332 -398 113 -55 183 -72 305 -72
187 0 336 61 463 188 214 214 257 512 114 787 -46 89 -163 208 -252 257 -135
75 -320 105 -455 74z m289 -32 c276 -71 476 -330 476 -613 -1 -362 -279 -640
-641 -641 -347 -1 -630 285 -630 634 0 145 28 239 105 355 151 227 427 333
690 265z"/>
<path d="M702 1311 c-52 -14 -109 -57 -138 -107 -57 -98 -28 -224 67 -290 38
-26 50 -29 123 -29 71 0 86 3 119 27 106 72 131 207 60 311 -48 69 -149 108
-231 88z"/>
<path d="M485 1248 c-128 -67 -230 -191 -275 -333 -44 -139 -27 -305 43 -440
41 -77 155 -191 232 -232 62 -32 163 -63 209 -63 l26 0 0 318 0 318 -44 12
c-92 24 -177 118 -195 217 -11 61 2 141 31 190 11 19 18 35 16 35 -1 -1 -21
-10 -43 -22z"/>
<path d="M982 1264 c43 -89 49 -109 49 -162 0 -31 -4 -71 -10 -89 -24 -81
-119 -171 -198 -188 l-33 -7 0 -319 0 -319 29 0 c60 0 186 49 259 100 155 109
243 274 244 460 0 163 -52 290 -167 405 -59 59 -187 147 -173 119z"/>
</g>
</svg>
