<?xml version="1.0" standalone="no"?>
<!DOCTYPE svg PUBLIC "-//W3C//DTD SVG 20010904//EN"
 "http://www.w3.org/TR/2001/REC-SVG-20010904/DTD/svg10.dtd">
<svg version="1.0" xmlns="http://www.w3.org/2000/svg"
 width="500.000000pt" height="500.000000pt" viewBox="0 0 500.000000 500.000000"
 preserveAspectRatio="xMidYMid meet">
<metadata>
Created by potrace 1.15, written by Peter Selinger 2001-2017
</metadata>
<g transform="translate(0.000000,500.000000) scale(0.100000,-0.100000)"
fill="#000000" stroke="none">
<path d="M2389 4726 c-2 -2 -71 -11 -154 -20 -166 -19 -230 -36 -373 -101 -53
-24 -142 -62 -197 -85 -55 -23 -143 -66 -196 -96 -52 -29 -108 -58 -123 -64
-55 -20 -586 -439 -586 -461 0 -5 -26 -38 -57 -72 -52 -56 -84 -99 -201 -265
-47 -68 -259 -493 -265 -533 -2 -19 -17 -62 -31 -97 -56 -130 -85 -344 -51
-372 12 -10 64 -10 247 -1 128 6 301 13 383 16 180 7 195 10 195 39 0 16 -11
25 -47 39 -53 19 -81 40 -106 78 -16 25 -16 26 5 37 13 6 51 10 85 9 56 -1 71
3 150 44 73 38 88 49 88 69 0 19 -7 26 -35 33 -77 20 -67 30 53 57 98 22 126
34 191 76 93 60 96 79 20 105 -55 18 -104 46 -104 59 0 10 44 17 181 30 98 8
192 31 212 50 5 4 6 17 2 29 -5 15 -15 21 -38 21 -43 1 -113 33 -127 60 -10
18 -8 26 10 45 46 49 144 51 301 5 82 -25 142 -64 217 -144 72 -77 112 -154
112 -214 0 -36 -6 -50 -33 -77 -43 -43 -108 -52 -227 -31 -46 8 -86 13 -88 11
-3 -2 16 -37 42 -76 25 -40 46 -76 46 -81 0 -30 -160 -13 -209 21 -26 19 -33
20 -51 9 -11 -7 -20 -15 -20 -18 0 -3 15 -31 34 -62 l35 -57 -46 -17 c-50 -19
-143 -23 -227 -10 l-50 8 27 -34 c49 -62 80 -108 75 -113 -3 -3 -67 -11 -144
-18 l-139 -13 55 -32 c30 -18 73 -37 95 -43 130 -35 92 -32 371 -30 l221 1 94
76 c52 42 126 99 166 125 40 27 77 57 82 67 21 39 373 214 555 276 15 5 -7 27
-107 109 -69 56 -126 105 -126 109 -2 19 81 28 166 18 151 -17 259 -52 386
-124 228 -130 380 -315 483 -586 28 -73 28 -80 29 -270 0 -236 -2 -246 -128
-510 -88 -183 -303 -407 -543 -565 -119 -79 -167 -104 -239 -127 -135 -43
-284 -78 -335 -78 -25 0 -72 -7 -105 -15 -82 -20 -149 -18 -293 5 -551 90
-960 291 -1314 645 -65 64 -118 113 -118 109 -1 -20 -20 23 -20 44 0 12 -4 22
-10 22 -5 0 -10 9 -10 20 0 12 -9 39 -20 60 -16 31 -26 40 -46 40 -25 0 -26
-2 -21 -47 5 -48 97 -316 131 -383 24 -46 151 -231 236 -345 111 -148 307
-329 496 -459 198 -135 286 -168 296 -112 3 14 1 29 -3 33 -5 5 0 23 11 41 25
41 69 44 105 7 33 -32 32 -42 -10 -85 l-36 -37 41 -37 c64 -58 207 -116 285
-116 13 0 36 11 51 23 l28 24 -22 31 c-31 43 -29 80 6 93 15 6 42 8 61 5 76
-12 108 -64 71 -116 -31 -43 -13 -72 73 -115 l70 -35 189 0 189 1 9 24 c11 28
-2 80 -27 107 -22 24 -8 67 27 86 35 18 145 11 167 -10 15 -15 15 -21 0 -72
-15 -55 -15 -55 9 -70 27 -18 228 -23 239 -6 3 6 21 10 40 10 44 0 141 35 183
67 52 39 44 87 -24 133 -72 50 -69 85 12 139 56 36 121 42 147 14 8 -10 19
-49 24 -88 l8 -70 53 -3 c34 -2 62 2 75 11 12 8 40 20 62 27 83 26 304 165
344 216 27 35 44 90 37 120 -5 19 -21 32 -61 49 -61 28 -90 63 -81 99 16 65
129 146 203 146 53 0 64 -17 56 -93 -7 -66 5 -87 49 -87 61 0 104 35 203 167
114 151 147 216 153 294 4 50 2 58 -17 68 -16 9 -27 8 -50 -4 -75 -38 -151 9
-151 94 0 41 54 120 95 137 41 17 75 7 120 -36 17 -16 35 -30 41 -32 6 -2 35
29 64 67 49 64 54 76 63 145 5 41 13 83 18 92 12 24 11 275 -1 299 -15 26 -53
24 -97 -5 -29 -20 -40 -23 -64 -14 -73 25 -86 162 -23 238 37 43 67 40 125
-15 26 -25 55 -45 62 -45 22 0 48 46 41 73 -3 13 2 50 11 82 21 70 16 116 -30
292 -42 162 -46 172 -88 216 -43 46 -67 48 -67 8 0 -73 -52 -118 -122 -104
-72 13 -98 49 -98 138 0 95 38 138 108 121 97 -24 102 -21 102 65 0 75 -22
144 -87 273 -41 79 -76 131 -131 191 -41 46 -85 89 -98 96 -36 19 -54 -2 -54
-65 0 -70 -45 -135 -94 -136 -66 -1 -166 92 -166 154 0 62 66 116 142 116 49
0 68 13 68 47 0 38 -25 76 -89 136 -106 98 -351 251 -435 271 -34 8 -96 -10
-96 -29 0 -8 14 -36 30 -62 38 -60 38 -84 -1 -128 -62 -70 -102 -76 -186 -29
-48 28 -58 42 -66 99 -5 33 -1 49 24 93 23 41 34 52 49 47 11 -4 28 3 45 18
27 23 27 24 11 49 -13 20 -56 41 -172 88 -349 138 -408 150 -722 150 -131 0
-241 -2 -243 -4z m-1066 -745 c17 -6 17 -8 -4 -35 -12 -15 -78 -74 -148 -131
-69 -57 -172 -146 -229 -199 -105 -98 -142 -116 -142 -73 0 36 44 89 191 232
182 177 231 215 277 214 21 0 45 -4 55 -8z"/>
</g>
</svg>
